<?xml version="1.0" encoding="UTF-8"?>
<svg id="Ebene_2" data-name="Ebene 2" xmlns="http://www.w3.org/2000/svg" viewBox="0 0 86.68 59.97">
  <defs>
    <style>
      .cls-1 {
        fill: #203f4a;
      }
    </style>
  </defs>
  <g id="Ebene_1-2" data-name="Ebene 1">
    <path class="cls-1" d="M40.65,19.74c-.04-.41-.12-.83-.22-1.24C39.54,8.14,30.85,0,20.26,0,9.07,0,0,9.07,0,20.26s8.56,19.71,19.3,20.21c-2.59,4.09-6.76,7.4-11.85,8.96l-.17.05c-2.36.72-3.99,3.02-3.77,5.58.25,2.95,2.84,5.14,5.8,4.89,8.71-.74,17.42-5.19,23.34-12.42,2.97-3.6,5.27-7.84,6.67-12.46,1.41-4.61,1.89-9.59,1.41-14.5l-.08-.83Z"/>
    <path class="cls-1" d="M86.42,19.74c-.04-.41-.12-.83-.22-1.24-.89-10.36-9.58-18.5-20.17-18.5-11.19,0-20.26,9.07-20.26,20.26s8.56,19.71,19.3,20.21c-2.59,4.09-6.76,7.4-11.85,8.96l-.17.05c-2.36.72-3.99,3.02-3.77,5.58.25,2.95,2.84,5.14,5.8,4.89,8.71-.74,17.42-5.19,23.34-12.42,2.97-3.6,5.27-7.84,6.67-12.46,1.41-4.61,1.89-9.59,1.41-14.5l-.08-.83Z"/>
  </g>
</svg>