<?xml version="1.0" encoding="UTF-8"?>
<svg id="Ebene_1" xmlns="http://www.w3.org/2000/svg" version="1.1" viewBox="0 0 584 240.6">
  <!-- Generator: Adobe Illustrator 29.1.0, SVG Export Plug-In . SVG Version: 2.1.0 Build 142)  -->
  <defs>
    <style>
      .st0 {
        fill: #ffdd7e;
      }
    </style>
  </defs>
  <path class="st0" d="M400.7,4.5c1.5-4.8,8.6-6.7,10.3-.9,3.3,11.7,3.5,24.8,3.6,36.9,2.3,16.4,1.2,54.5.7,78.4-.3,18.6-.4,36.7,3.2,54.8.5,10.2-.5,20.5.2,31,0,7.2.5,14.4,1.3,21.6.9,5.3-2.6,10.6-8.4,9.4-9.2-1.6-2.4-13.8-4.3-20-1.1-10.9-2.2-21.8-1.9-32.9-.7-6.1-.4-14.9-.5-20.8-1.3-8-1.1-18.6-1.5-26.3-2.2-13-.7-25.4-1.5-38.4-.3-4.9-.5-10.1-.8-15.1-.4-4,.8-10.4-.6-14.2-3.9-2.4-10,.4-14.4,1.3-3.5,1.3-4,5.6-5.8,8.4-1.7,3-3.3,6-4.2,9.3-1.7,5.5-4.6,10.1-6.4,15.6-1.6,4.6-3.2,12.1-9.1,12.5-5.6-1.7-5.9-10.8-9.4-15.1-8.4-12.8-18.3-24.8-24.9-38.7-1.9-3.9-7.7-3.3-10.6-.9-2.2,2.2-.7,5.1-1,7.8-.3,18.8,1.2,40-1.2,59,0,15.8,0,31.5,1.1,47.1-.2,9-2.6,17.5-1.4,26.7.1,8.5-1.7,17.3-.7,25.7,1.5,7.4-1.2,8.6-7.7,10.4-3.8,2.2-8.4,1.3-8.6-3.9-.8-15.1.9-30.2,1.9-45.3.5-14.5.6-29,1.9-43.5,1-12.7-2.3-26.4,0-39.3.4-11.7-1-22.9-.9-34.3-.9-6.6-2.7-12.9-3.1-19.6.1-5,1.2-9.8,1.4-14.9,0-6.8-.4-14.3-.6-21.1-.1-3.4-2.1-8.5,1.8-10.3,5.9-1.7,6.9,5.8,10.1,9,8.5,11.2,16,22.7,26,32.8,6.8,10.3,13.2,20.6,18.7,31.6,2.2,3.5,2.6,9.2,5.7,12.1,3.3-2.4,4.2-8.3,6.5-11.7,5.2-11.5,11-23.2,16.6-34.6,2.5-6.5,6.2-12.8,9.6-18.5,3.3-6.6,6.1-13.9,8.8-20.9h0Z"/>
  <path class="st0" d="M4.1,4.5c2-2.8,6-1.7,9-1.7,9.5-1.1,18.9.8,28.4.9,11.8,3.1,21.8,11.1,31.2,18.6,8.5,8.4,13.2,19.9,16.6,31.1,7.3,41.1-16.5,46.3-48,60.6-5.1,1.5-10.4,3-15.4,4.6-.4.3-.6.4-.6.9,5.7,7.8,12.9,15,19.6,22.2,4.8,5.7,7.6,12.3,12.9,17.6,4,3.8,8.3,7.6,11.1,12.3,6,11.2,14.4,21.1,20.6,32.1,5.7,7.3,12.1,14.4,17.5,22,3.7,4,3.1,19-4.9,13-4.4-4.1-6.7-9.6-10.6-14.1-14.4-16.1-27.7-33-41.1-50.2-10.2-13.2-22.2-25.2-31.3-39.2-3.6-5.1-2.8,10-2.9,11.7.2,5.9-1.2,11.9-.7,18.1,1.6,16.2.4,33.1.5,49.2.4,5.7,0,11.2-.8,16.8.1,3.4,1.3,9.8-3.7,9.6-9.8-1.7-8.6-4.1-9-12.8.4-6.8-1.8-13.1-1.8-19.8.3-2.2,1.2-4.3,1.3-6.6.1-3.2-.9-5.8-.8-8.9.3-5.7-.7-13.7.6-18.6.3-6.6,0-35.8.1-50.1-.5-12.8-1.4-24.2-1.1-36.9C0,79.2-.3,70.7.3,62.8c1.3-12.5,1.9-25.5,2.9-38.1.4-6.6-1.6-13.8.7-20h0ZM60.3,36c-2,0-4.1.3-5.9.7-4.9.8-11.6.6-16.7,1-3.4.2-6.3,1.2-9.8,1.3-3.6.7-8,.1-11.5,1.1-1.3.7-1.3,1.9-1.3,3.6,0,3.9,0,8.9.6,12.6.3,2.6-.8,5-1,7.5-.3,3.9.3,8.4.1,12.3-.7,4.8-.6,10.6-.7,15.2-.8,4.5-.8,9.8-.6,14.6.1,1.7.6,2.5,2,2.6,2.4,0,5.8-.3,8.2-1.2,4.7-2.2,9.1-4.4,14.1-5.9,4.2-1.2,7.9-3.2,12-5,2.3-1,5.8-2.3,8.8-3.4,3.1-1.2,6.6-2.2,8.9-4.7,1.7-2.4,3.9-3.9,4.3-7,.2-1.6.2-3.3.6-4.9,1.4-4.3,2.1-8.8,1.5-13.3-.9-4.4.9-10.2-2-14.2-2.1-2.7-3.5-5.4-4.9-8.6-1.2-3.2-3-5-6.6-4.5h-.2Z"/>
  <path class="st0" d="M143.5,5.2c5.9-1.7,11.9-1.1,18.1-1,12.6-.6,26.2-.5,38.5-.5,12.1-1.7,24.4-.7,36.6-1.7,5.4-1,12.5,6.3,6.7,10.3-6.1,2.3-13.6,2.2-19.8,3.3-4.8,1.6-10,.7-14.9,1.4-2.4.4-3.4,1.5-6,1.7-16.2.7-32.8.5-48.8,3.3-3.1.9-2.1,4.9-2.5,7.4-1.8,7.9-.8,15.8-.3,23.6.2,19-1.4,43-.6,59.9.8,4.9,8,2,11.4,2.2,10.1.6,19.6.3,29.6-.7,8.2-.5,15.4.8,23.5,1.3,5.5.5,9.8-2,14.9-.6,6.5,2.4,7,8.3,5.8,14.3-.3,3.5-.1,7-1,10.4-3.6,8.3-15,6.8-22.3,6.3-4.3-1.8-6.1-1.6-10.9-1.5-14.4.1-37.6-.3-45.3.2-5.4,0-4,2.2-4.2,6.9.7,17.7-2.1,36.4,2.7,53.4,1.3,3.9-3.1,16.1,4.3,13.5,10.2-.9,30.3-.1,37.8-.4,6.3,1.7,14.6.7,20.7,2.1,10.7.5,27.2-.9,38.3.5,4.4,2.3,4.8,11.1-1.4,11.5-13.5.9-27-1.4-40.4-1.6-7.7-.6-15.1,1.7-22.8,2.8-10.5,1.1-21.2,1.3-31.8,2-17.2,6.6-15.9,2-17.1-13.8.2-11.5-.3-23.3-3-34.6-.5-5.1.3-11.2.3-16.6-.3-7.7-1.5-15-1.4-22.6-1.2-13.5.6-26.7-1.9-40-2.5-20.9-2.9-42.2-2-63.1.6-8.7.9-17.7,3.9-25.7,1.9-4.3,1.3-10.6,5-13.8h.1Z"/>
  <path class="st0" d="M455.5,4.8c1-3.5,5.8-4.4,8.9-3.2,1.8.7,3.2,2.9,4.7,4.4,3,2.8,5.3,6.2,7.4,9.7,2.7,3.9,6.1,8,8.3,12.3,7,10.1,15.6,19.5,22.8,29.7,2.1,2.9,4.6,5.6,6.9,8.3,2,2.5,4.1,5.6,7.7,5.4,7.4-1.1,15.2-2,21.9-5.4,1.9-1.9,2.6-4.9,3.5-7.3,1.2-3.7,2.8-7.4,4.4-10.8,4.9-8.7,10.9-17.6,13.1-27.6,1-5.1.5-11.1,5.2-14.5,4.9-3.5,17-6,13.2,4-1.4,10.1-7.2,18.9-11.7,27.9-.6,1.3-.7,2.7-1,4.1-.4,2.8-2.3,5.3-3.9,7.4-1.3,2.3-2.9,4.3-4,6.7-5.1,12.5-8.1,26.1-13.9,38.4-3,7-7,14-10.2,20.8-4.5,9.3-8.7,19-13.2,28.4-5.6,11.5-10.4,23.4-15.5,35.1-1.4,3.2-2.4,7.1-3.7,10.5-1.8,4.5-4,8.9-5.3,13.6-3.5,10.7-5.7,22.3-11.1,32.1-5.1,7.4-12.8,5.5-9.8-4.4,3.9-16.8,10.2-32.2,17.5-47.7,4.3-12.7,8.4-25.5,12.7-38.3,2-4.8,4.7-7.9,6.2-12.5,1.8-6.4,4.5-11.4,7-17.2,3.9-10.3,4.8-11.2-3.5-19.3-7.2-8-15-15.9-20.9-24.8-7.5-11.3-16.7-21.6-24.5-32.7-2.4-3.1-3.1-7.2-5.4-10.3-3.7-4.5-6.7-9.6-10.5-14.2-2.1-2.3-4.4-5.1-3.4-8.4v-.2Z"/>
</svg>