<?xml version="1.0" encoding="UTF-8"?>
<svg id="Ebene_1" data-name="Ebene 1" xmlns="http://www.w3.org/2000/svg" viewBox="0 0 598.88 259.41">
  <defs>
    <style>
      .cls-1 {
        fill: #dfca38;
      }
    </style>
  </defs>
  <path class="cls-1" d="M63.08,13.18c12.46,4.94,21.21,11.28,29.51,21.8,4.48,6.16,8.9,23.08,9.33,33.61.16,4.11-.19,6.13-1.49,9.33-2.66,6.49-6.25,15.24-10.08,21.67-7.4,11.48-21.02,17.27-33.22,22.91-4.4,2.11-9.64,2.25-13.96,3.57-.71.21-1.38.6-1.03,1.44,11.11,14.95,22.56,29.77,34.79,43.9,8.94,10.04,20.55,17.77,28.78,28.67,4.87,6.08,9.7,12.56,16.58,16.49,3.3,1.99,7.04,2.34,9.85,5.16,3.61,3.85,4.98,10.49,4.68,15.62-.15,1.52-.45,2.27-1.44,3.64-1.51,2.28-4.18,6.1-5.35,7.53-6.2,5.93-12.07,6.91-19.32,2.15-26.41-23.58-43.36-55.16-67.45-80.79-1.82-2.04-3.63-4.08-5.39-6.16-1.15-.83-7.93-12.24-8.12-7.77-.36,19.26.65,38.6,1.88,57.89,1.03,9.27,2.85,18.39,1.68,27.66-.52,3.6-.48,8.72-2.42,11.8-2.91,3.41-9.83,3.56-14.1,4.34-1.72.28-3.28,1.3-5.02,1.52-7.73,1.27-12.04-2.2-11.75-10.26,2.43-32.24,4.84-64.84,4.67-97.15.25-10.58.93-21.31.87-31.81-.13-10.71-1.1-21.03-.97-31.79-.08-23.04,1.56-45.59,1.09-68.25.15-2.57-.48-5.33.64-7.7,2.98-5.24,7.5-7.52,13.6-6.39,8.01.67,16.65,2.8,24.45,2.53,6.38.85,12.47,2.62,18.52,4.78l.19.08ZM32.59,100.21c3.81.27,20.83-3.78,24.22-5.17,3.61-2.39,10.01-6.78,12.59-9.14,6.45-8.87,16.06-27.46,3.02-34.46-4.62-2.68-11.71-4.66-17.62-5.87-6.58-.7-14.08,1.65-20.91,1.81-1.48-.07-2.08,1.33-3.28,1.9-.5.23-1.08.44-1.59.72-3.21,1.8-4.84,5.42-5.15,8.92.62,3.51,1.84,8.9,2.82,13.66,1.6,7.46,4.55,22.17,5.88,27.62h.03Z"/>
  <path class="cls-1" d="M417.79,13.14c8.4,27.75,6.96,57.32,8.19,86.01,1.09,31.15,5.3,61.95,6.42,93.19.76,14.32-.87,30.15,4.7,43.29,3.79,8.5-8.37,11.49-14.18,13.9-1.73,1.13-3.09,3.29-5.44,3.3-23.65,1.51-12.87-125.28-12.57-144.58-.21-2.95.4-24.04-2.14-23.41-2.65.07-5.74,1.39-8.19,1.24-2.1,0-4.65-.07-5.75,2.09-5.39,9.95-9.8,20.36-14.24,30.8-1.34,2.52-1.61,6.73-4.82,7.43-3.73.39-5.55-3.43-7.47-6.01-8.87-10.27-14.29-22.76-22.95-33.07-1.43-1.77-2.68-3.98-4.09-5.67-.58-.56-1.27-.13-2.54.45-2.88,1.37-7.46,3.81-9.07,4.9-.69.45-.82.92-1.01,2.03-.69,34.42-3.86,68.97-1.71,103.41,1.47,15.54,2.97,34.11,10.25,47.47,2.46,10.67-22.79,9.81-28.71,7.52-4.13-1.43-6.5-5.13-6.38-9.6-.54-11.52-.44-23.28-.54-34.79.05-12.87,1.09-25.9.27-38.89-3.15-38.94,3.36-77.72,4.99-116.58.82-8.66-.54-17.35-.11-25.97.32-2.08,1.41-4.4,1.82-6.75.21-1.08.69-2.14,1.67-2.71,2.5-1.46,5.81-.16,7.4,2.13,1.89,2.73,4.56,4.93,6.47,7.75,16.2,21.97,30.66,45.32,48.9,65.63,1.23,1.38,1.74.66,2.46-.59,12.84-23.79,25.95-48.31,34.35-73.97,1.34-2.08,4.76-3.56,6.99-4.58,2.97-1.22,6.12,1.57,6.97,4.47l.06.18Z"/>
  <path class="cls-1" d="M251.02,13.15c4.08,6.46,5.72,17.18.29,23.61-.95,1.57-1.1,3.68-2.94,4.55-12.33,1.61-24.85-2.29-37.25-3.22-7.45-.86-14.88-1.45-22.37-2.02-5.97-.52-13.26-1.67-19.2-1.74-5.2-.33-3.83,1.53-4.36,5.37-2,12.22.08,24.58-1.76,36.87-.66,5.07-.23,32.87-.52,45.52.08.59-.27.99.49,1.29,19.85-.52,39.89-3.59,59.74-4.57,4.74-.11,10.86-.63,14.96,2.11,5.73,6.66,4.07,16.33,3.13,24.36-.7,7.06-5.53,11.48-12.67,11.36-8.3.61-19.62-.98-26.63-.85-10.87.4-21.69,2.6-32.37,4.63-3.21.4-1.64,4.59-1.99,6.83.37,11.27-.92,22.76.46,34,.78,6.1,2.05,12.21,2.7,18.31.15.98.69,1.46,1.73,1.37,7.19-.85,14.5-.82,21.74-1.16,13.19-.56,26.12-3.74,39.26-4.03,6.06-.25,12.23-.29,18.2-1.31,7.65-1.84,14.57-4.53,21.95-2.03,1.92,1.02,3.23,4.33,3.39,6.7.1,1.95-.88,3.79-.9,5.73-.21,3.69-.38,9.56-1.27,13.03-2.93,8.71-14.66,4.46-21.6,5.05-31.96.62-64.22,1.19-95.93,5.96-8.22-1.26-9.63-2.89-9.45-11.16-3.79-52.93-5.78-105.68-7.73-158.75-.24-12.94-.08-26.11,1.43-38.81,1.01-8.24,4.76-15.91,5.64-24.15,1.46-7.91,35.71-3.42,43-4,14.33,0,28.92-.98,43.28-1.85,5.77-.2,13.8-3.24,17.46,2.83l.1.15Z"/>
  <path class="cls-1" d="M479.34,13.19c1.68,2.2,3.57,6.47,5.56,9.04,2.98,3.77,7.26,6.68,10.34,10.4,6.93,8.23,11.36,18.48,18.08,27.09,3.64,4.58,7.88,8.71,11.57,13.25.86.92,2.17,1.29,3.36,1.12,2.76-.32,12.53-2.35,15.99-3.33,1.22-.19,1.59-1.05,2.02-2.13,5.07-12.35,11.99-23.77,17.38-35.93,3.74-7.92,7.24-17.4,14.42-20.33,3.98-1.49,8.68-2.43,12.53.2.96.44,1.87,1.03,2.53,1.88,2.16,2.96,4.76,5.68,5.47,9.33.41,1.91.47,4.93-.15,6.58-13.92,14.63-26.94,35.24-35.44,52.7-3.95,8.13-6.54,15.77-10.31,23.51-1.63,3.55-4.42,7.92-5.87,11.44-1.52,3.65-2.12,6.65-3.45,10.75-3.65,11.27-9.74,22.24-13.93,33.15-9.88,30.19-16.54,61.34-22.59,92.47-.85,1.83-3.33,3.22-5.28,3.24-2.44-.16-5.1-1.31-7.54-1.5-2.56-.33-4.52-1.8-6.45-3.54-1.49-1.31-3.03-2.97-3.91-4.66-1.89-3.31-1.19-8.59-.53-12.3,7.9-38.24,21.8-74.77,35.33-111.18,1.72-4.68,4.4-9.65,5.45-14.44-.08-1.31-1.01-1.86-2.16-3.45-2.85-3.47-7.8-8.86-11.06-12.46-7.85-8.6-14.15-18.58-21.7-27.47-13.18-15.7-26.57-30.35-44.62-41.12-5.67-3.28-9.87-5.57-4.89-12.29,2.44-3.45,7.4-8.03,10.74-10.48,1.02-.7,2.03-1.22,3.26-1.63,4.07-1.43,9.81-1.59,12.82.46,4.44,3.02,9.68,7.54,12.97,11.53l.09.12Z"/>
</svg>